<?xml version="1.0" standalone="no"?>
<!DOCTYPE svg PUBLIC "-//W3C//DTD SVG 20010904//EN"
 "http://www.w3.org/TR/2001/REC-SVG-20010904/DTD/svg10.dtd">
<svg version="1.0" xmlns="http://www.w3.org/2000/svg"
 width="600.000000pt" height="600.000000pt" viewBox="0 0 600.000000 600.000000"
 preserveAspectRatio="xMidYMid meet">
<metadata>
Created by potrace 1.11, written by Peter Selinger 2001-2013
</metadata>
<g transform="translate(0.000000,600.000000) scale(0.100000,-0.100000)"
fill="#000000" stroke="none">
<path d="M2841 5558 c-53 -30 -2393 -2367 -2387 -2385 3 -7 1 -13 -4 -13 -14
0 11 -52 34 -72 19 -16 48 -18 259 -18 131 0 236 -3 234 -7 -4 -7 -9 -38 -23
-148 -9 -77 -3 -351 10 -437 3 -21 8 -53 10 -70 6 -54 53 -227 86 -323 51
-149 209 -450 242 -463 4 -2 8 -10 8 -18 0 -8 5 -14 10 -14 6 0 10 -6 10 -12
0 -7 16 -31 36 -53 19 -22 56 -64 82 -94 26 -30 71 -78 101 -105 30 -28 62
-58 72 -68 9 -9 52 -42 96 -75 43 -32 79 -61 81 -65 2 -5 8 -8 14 -8 5 0 28
-13 51 -29 137 -94 443 -223 582 -246 11 -2 20 -4 20 -5 0 -2 18 -6 64 -15 23
-4 46 -19 68 -45 19 -21 59 -51 90 -67 56 -27 69 -31 106 -35 9 -1 17 -6 17
-10 0 -4 5 -8 11 -8 5 0 7 5 3 12 -5 7 -3 8 7 2 20 -12 40 -14 33 -3 -3 5 7 9
23 10 55 1 123 24 123 40 0 5 6 9 13 9 20 0 92 80 118 130 33 66 44 195 21
243 -5 12 -15 36 -21 52 -11 30 -65 93 -108 126 -36 29 -132 59 -186 59 -84 0
-157 -27 -229 -86 -24 -19 -33 -21 -60 -13 -18 6 -42 12 -52 14 -56 13 -166
53 -218 81 -16 9 -28 13 -28 10 0 -3 -17 4 -37 15 -21 12 -56 31 -78 42 -22
12 -44 26 -50 30 -5 4 -38 27 -71 50 -111 77 -237 192 -309 283 -16 20 -35 42
-40 48 -39 41 -152 237 -198 346 -29 68 -83 249 -93 311 -2 16 -6 44 -9 62 -3
17 -8 79 -10 137 -2 58 -5 107 -6 110 -1 3 -1 9 0 13 1 5 4 36 6 70 7 89 15
159 20 167 2 4 7 22 10 41 11 69 51 193 88 279 5 14 12 31 13 39 1 8 9 18 16
22 7 5 9 9 5 9 -9 0 60 128 80 148 7 7 13 20 13 28 0 8 5 14 10 14 6 0 10 6
10 14 0 8 4 16 8 18 4 1 29 30 54 63 159 205 382 373 614 460 37 14 72 29 78
33 24 17 167 56 246 67 25 4 61 10 80 14 19 4 54 7 78 6 23 0 42 3 42 6 0 7
76 3 97 -5 7 -3 13 -2 13 2 0 5 12 7 28 5 153 -15 159 -15 252 -32 65 -12 266
-76 285 -91 6 -4 27 -13 48 -19 20 -7 37 -16 37 -20 0 -4 6 -8 13 -8 13 0 155
-85 226 -136 47 -34 251 -232 290 -282 96 -124 232 -375 257 -477 2 -10 6 -26
9 -35 20 -75 45 -189 53 -243 6 -38 11 -399 11 -877 1 -773 1 -812 -17 -825
-32 -24 -72 -84 -91 -140 -38 -110 -7 -245 75 -333 27 -29 85 -68 101 -68 7 0
13 -3 13 -7 0 -4 6 -7 13 -8 44 -5 76 -15 72 -22 -6 -10 15 -7 33 4 7 4 19 2
27 -4 11 -9 15 -9 15 -1 0 6 9 11 20 11 76 0 197 85 240 170 31 61 34 76 34
165 1 90 -20 145 -81 213 -18 20 -34 39 -34 42 -1 3 -2 410 -3 905 l-1 900
212 5 212 5 30 34 c63 70 151 -27 -1138 1262 -643 643 -1174 1169 -1180 1169
-6 0 -11 4 -11 9 0 11 -55 31 -85 31 -12 0 -41 -10 -64 -22z"/>
<path d="M2937 3804 c-3 -3 -45 -7 -94 -9 -48 -2 -88 -4 -88 -5 0 -1 -11 -3
-25 -6 -62 -11 -86 -15 -95 -18 -5 -2 -23 -6 -40 -10 -16 -4 -39 -12 -50 -16
-11 -5 -49 -21 -85 -36 -36 -14 -72 -32 -81 -40 -8 -8 -19 -14 -23 -14 -13 0
-156 -101 -156 -110 0 -6 -5 -10 -11 -10 -23 0 -188 -186 -212 -240 -4 -8 -16
-28 -27 -45 -27 -42 -70 -135 -70 -151 0 -7 -4 -16 -10 -19 -5 -3 -10 -12 -10
-20 0 -8 -5 -26 -11 -42 -7 -15 -13 -35 -14 -43 -1 -8 -5 -33 -9 -55 -29 -165
-26 -351 9 -485 4 -14 9 -37 12 -52 3 -16 10 -28 15 -28 5 0 7 -4 4 -8 -3 -5
2 -22 10 -38 9 -16 15 -30 14 -32 -4 -8 76 -157 106 -197 125 -172 246 -277
419 -361 50 -24 95 -44 100 -44 6 0 23 -21 40 -48 36 -57 77 -96 130 -125 22
-12 42 -22 45 -22 51 -13 144 -22 153 -15 1 1 15 4 32 6 44 8 121 49 159 86
154 151 124 412 -62 526 -26 16 -63 32 -82 36 -76 15 -198 5 -212 -18 -4 -6
-8 -8 -8 -4 0 4 -15 -1 -34 -11 -31 -18 -35 -18 -67 -3 -19 9 -36 19 -39 22
-3 3 -22 14 -42 25 -72 37 -177 151 -227 245 -85 161 -104 325 -58 516 10 40
51 129 86 184 39 63 155 180 203 204 18 9 48 26 66 36 36 22 130 55 183 66 73
14 214 10 284 -9 131 -34 261 -109 336 -194 74 -84 85 -101 121 -173 75 -155
72 -116 75 -968 l2 -764 -45 -44 c-24 -25 -44 -51 -44 -60 0 -8 -6 -17 -13
-20 -8 -3 -14 -10 -15 -17 0 -7 -4 -23 -8 -37 -4 -14 -7 -59 -7 -100 0 -60 5
-87 25 -132 49 -105 161 -186 266 -191 6 0 12 -4 12 -9 0 -4 5 -8 11 -8 5 0 7
6 3 13 -6 9 -4 10 7 0 16 -16 33 -17 23 -2 -5 8 4 10 30 7 20 -2 36 -1 36 3 0
4 12 10 26 13 37 10 104 54 137 90 54 61 79 128 79 214 0 42 -1 84 -4 92 -9
34 -50 107 -78 140 -16 19 -30 40 -31 45 -4 78 -2 725 2 725 7 0 2 63 -6 87
-2 6 1 14 8 17 9 5 9 7 -1 12 -6 3 -9 11 -5 17 8 13 5 166 -3 179 -3 4 -1 8 4
8 9 0 7 57 -3 87 -2 6 1 14 8 17 9 5 9 7 -1 12 -6 3 -9 10 -6 15 9 15 3 414
-6 414 -1 0 -3 9 -5 20 -13 90 -41 185 -85 283 -18 39 -36 72 -40 72 -4 0 -7
6 -7 13 0 13 -70 117 -88 129 -5 4 -6 8 -2 8 11 0 -149 158 -200 198 -23 17
-46 32 -52 32 -5 0 -11 4 -13 9 -6 18 -204 115 -258 126 -8 2 -15 4 -15 5 0 7
-163 39 -218 43 -30 3 -60 8 -65 11 -5 3 -12 3 -15 0z"/>
</g>
</svg>
